<svg width="788" height="573" viewBox="0 0 788 573" fill="none" xmlns="http://www.w3.org/2000/svg">
<g clip-path="url(#clip0_1_2)">
<path d="M458.821 101.382C473.568 101.382 485.522 89.428 485.522 74.6816C485.522 59.9352 473.568 47.9809 458.821 47.9809C444.075 47.9809 432.121 59.9352 432.121 74.6816C432.121 89.428 444.075 101.382 458.821 101.382Z" fill="#E0F2FE"/>
<path d="M665.948 497.652C705.635 467.423 724.591 416.626 712.724 368.17C712.429 366.966 712.118 365.764 711.79 364.566C703.923 335.802 684.459 308.465 656.09 299.274C632.271 291.558 606.271 297.492 581.421 294.423C532.639 288.399 494.82 248.929 468.21 207.604C441.599 166.278 421.148 120.02 385.788 85.8795C327.503 29.6042 232.426 17.4881 160.161 54.1191C87.8967 90.7503 41.8649 172.019 43.828 253.014C45.7912 334.009 93.8743 411.446 163.703 452.531C189.355 467.624 219.024 478.317 248.551 474.575C274.171 471.329 297.45 457.563 322.95 453.476C363.041 447.05 402.877 465.176 437.552 486.299C472.228 507.422 505.723 532.459 545.127 542.252C583.388 551.76 630.79 524.43 665.948 497.652Z" fill="#E0F2FE"/>
<path d="M608.926 55.8199C608.056 55.2399 607.176 54.6899 606.306 54.1299C581.157 38.0457 554.201 24.9791 525.996 15.1999L519.456 105.42H477.996V2.02994C475.386 1.48994 472.756 0.979939 470.126 0.499939V105.42H420.856C393.732 105.42 367.719 94.6451 348.54 75.4658C329.361 56.2865 318.586 30.2737 318.586 3.15005C315.946 3.72005 313.326 4.32997 310.706 4.97997V105.42H270.576L264.346 19.39C235.361 30.5062 207.843 45.1247 182.406 62.92C181.966 63.22 181.526 63.53 181.096 63.83C178.886 65.38 176.706 66.96 174.536 68.56V412.75H292.806L290.716 383.8L279.216 224.85H510.806L499.306 383.8L497.216 412.75H614.176V59.3C612.436 58.12 610.686 56.96 608.926 55.8199ZM310.706 198.6H277.316L271.146 113.3H310.706V198.6ZM470.126 198.6H414.046V196.91C414.046 196.098 413.886 195.293 413.575 194.543C413.263 193.792 412.807 193.11 412.232 192.536C411.657 191.962 410.975 191.507 410.224 191.197C409.473 190.887 408.668 190.729 407.856 190.73H383.476C382.664 190.73 381.861 190.889 381.111 191.2C380.361 191.51 379.679 191.965 379.105 192.539C378.531 193.113 378.076 193.795 377.766 194.545C377.455 195.295 377.296 196.098 377.296 196.91V198.6H318.586V113.3H470.126V198.6ZM477.996 198.6V113.3H518.886L512.716 198.6H477.996Z" fill="#082F49"/>
<path d="M0.499939 434.791C9.18719 445.084 18.5834 454.758 28.6199 463.741L759.2 464.741C769.236 455.758 778.633 446.084 787.32 435.791L0.499939 434.791Z" fill="#082F49"/>
<path d="M495.93 342.091V427.795C495.931 428.887 496.365 429.935 497.137 430.707C497.91 431.479 498.957 431.914 500.049 431.914H627.053C628.146 431.914 629.193 431.479 629.965 430.707C630.737 429.935 631.172 428.887 631.173 427.795V342.091C631.17 341 630.735 339.954 629.963 339.183C629.191 338.412 628.145 337.978 627.053 337.977H500.049C498.958 337.978 497.912 338.412 497.139 339.183C496.367 339.954 495.933 341 495.93 342.091Z" fill="#082F49"/>
<path d="M498.909 343.158V426.738C498.91 427.322 499.143 427.881 499.555 428.294C499.968 428.706 500.527 428.938 501.111 428.939H625.996C626.58 428.938 627.139 428.706 627.552 428.294C627.964 427.881 628.197 427.322 628.198 426.738V343.158C628.198 342.573 627.966 342.013 627.553 341.599C627.14 341.186 626.58 340.953 625.996 340.952H501.111C500.527 340.953 499.967 341.186 499.554 341.599C499.141 342.013 498.909 342.573 498.909 343.158Z" fill="#06B6D4"/>
<path d="M493.274 444.51C493.506 444.802 493.802 445.037 494.139 445.198C494.475 445.359 494.844 445.442 495.217 445.44H631.209C631.581 445.439 631.948 445.356 632.284 445.196C632.619 445.036 632.915 444.803 633.149 444.514C633.384 444.225 633.551 443.887 633.638 443.526C633.726 443.164 633.732 442.788 633.655 442.424L631.544 432.397C631.457 431.988 631.268 431.607 630.996 431.29C630.724 430.972 630.377 430.728 629.986 430.579C629.703 430.468 629.402 430.411 629.098 430.411H497.32C497.016 430.411 496.715 430.468 496.432 430.579C496.041 430.728 495.694 430.972 495.422 431.29C495.15 431.607 494.961 431.988 494.874 432.397L492.763 442.424C492.688 442.788 492.695 443.164 492.783 443.525C492.871 443.885 493.039 444.222 493.274 444.51Z" fill="#06B6D4"/>
<path d="M624.432 434.73H627.644C627.914 434.73 628.132 434.512 628.132 434.242V432.705C628.132 432.436 627.914 432.217 627.644 432.217H624.432C624.162 432.217 623.944 432.436 623.944 432.705V434.242C623.944 434.512 624.162 434.73 624.432 434.73Z" fill="#082F49"/>
<path d="M616.055 434.73H619.267C619.537 434.73 619.755 434.512 619.755 434.242V432.705C619.755 432.436 619.537 432.217 619.267 432.217H616.055C615.785 432.217 615.567 432.436 615.567 432.705V434.242C615.567 434.512 615.785 434.73 616.055 434.73Z" fill="#082F49"/>
<path d="M607.678 434.73H610.89C611.16 434.73 611.378 434.512 611.378 434.242V432.705C611.378 432.436 611.16 432.217 610.89 432.217H607.678C607.408 432.217 607.19 432.436 607.19 432.705V434.242C607.19 434.512 607.408 434.73 607.678 434.73Z" fill="#082F49"/>
<path d="M599.301 434.73H602.513C602.783 434.73 603.001 434.512 603.001 434.242V432.705C603.001 432.436 602.783 432.217 602.513 432.217H599.301C599.031 432.217 598.813 432.436 598.813 432.705V434.242C598.813 434.512 599.031 434.73 599.301 434.73Z" fill="#082F49"/>
<path d="M590.924 434.73H594.136C594.406 434.73 594.624 434.512 594.624 434.242V432.705C594.624 432.436 594.406 432.217 594.136 432.217H590.924C590.654 432.217 590.436 432.436 590.436 432.705V434.242C590.436 434.512 590.654 434.73 590.924 434.73Z" fill="#082F49"/>
<path d="M582.547 434.73H585.759C586.029 434.73 586.247 434.512 586.247 434.242V432.705C586.247 432.436 586.029 432.217 585.759 432.217H582.547C582.277 432.217 582.059 432.436 582.059 432.705V434.242C582.059 434.512 582.277 434.73 582.547 434.73Z" fill="#082F49"/>
<path d="M574.17 434.73H577.382C577.652 434.73 577.87 434.512 577.87 434.242V432.705C577.87 432.436 577.652 432.217 577.382 432.217H574.17C573.9 432.217 573.682 432.436 573.682 432.705V434.242C573.682 434.512 573.9 434.73 574.17 434.73Z" fill="#082F49"/>
<path d="M565.793 434.73H569.005C569.275 434.73 569.493 434.512 569.493 434.242V432.705C569.493 432.436 569.275 432.217 569.005 432.217H565.793C565.523 432.217 565.305 432.436 565.305 432.705V434.242C565.305 434.512 565.523 434.73 565.793 434.73Z" fill="#082F49"/>
<path d="M557.416 434.73H560.628C560.898 434.73 561.116 434.512 561.116 434.242V432.705C561.116 432.436 560.898 432.217 560.628 432.217H557.416C557.147 432.217 556.928 432.436 556.928 432.705V434.242C556.928 434.512 557.147 434.73 557.416 434.73Z" fill="#082F49"/>
<path d="M549.039 434.73H552.251C552.521 434.73 552.739 434.512 552.739 434.242V432.705C552.739 432.436 552.521 432.217 552.251 432.217H549.039C548.77 432.217 548.551 432.436 548.551 432.705V434.242C548.551 434.512 548.77 434.73 549.039 434.73Z" fill="#082F49"/>
<path d="M540.662 434.73H543.874C544.144 434.73 544.362 434.512 544.362 434.242V432.705C544.362 432.436 544.144 432.217 543.874 432.217H540.662C540.392 432.217 540.174 432.436 540.174 432.705V434.242C540.174 434.512 540.392 434.73 540.662 434.73Z" fill="#082F49"/>
<path d="M532.285 434.73H535.497C535.767 434.73 535.985 434.512 535.985 434.242V432.705C535.985 432.436 535.767 432.217 535.497 432.217H532.285C532.016 432.217 531.797 432.436 531.797 432.705V434.242C531.797 434.512 532.016 434.73 532.285 434.73Z" fill="#082F49"/>
<path d="M523.908 434.73H527.12C527.39 434.73 527.608 434.512 527.608 434.242V432.705C527.608 432.436 527.39 432.217 527.12 432.217H523.908C523.639 432.217 523.42 432.436 523.42 432.705V434.242C523.42 434.512 523.639 434.73 523.908 434.73Z" fill="#082F49"/>
<path d="M515.531 434.73H518.743C519.013 434.73 519.232 434.512 519.232 434.242V432.705C519.232 432.436 519.013 432.217 518.743 432.217H515.531C515.262 432.217 515.043 432.436 515.043 432.705V434.242C515.043 434.512 515.262 434.73 515.531 434.73Z" fill="#082F49"/>
<path d="M507.154 434.73H510.366C510.636 434.73 510.855 434.512 510.855 434.242V432.705C510.855 432.436 510.636 432.217 510.366 432.217H507.154C506.885 432.217 506.666 432.436 506.666 432.705V434.242C506.666 434.512 506.885 434.73 507.154 434.73Z" fill="#082F49"/>
<path d="M498.777 434.73H501.989C502.259 434.73 502.477 434.512 502.477 434.242V432.705C502.477 432.436 502.259 432.217 501.989 432.217H498.777C498.508 432.217 498.289 432.436 498.289 432.705V434.242C498.289 434.512 498.508 434.73 498.777 434.73Z" fill="#082F49"/>
<path d="M624.531 438.919H627.743C628.013 438.919 628.231 438.7 628.231 438.431V436.894C628.231 436.624 628.013 436.406 627.743 436.406H624.531C624.261 436.406 624.043 436.624 624.043 436.894V438.431C624.043 438.7 624.261 438.919 624.531 438.919Z" fill="#082F49"/>
<path d="M616.154 438.919H619.366C619.636 438.919 619.854 438.7 619.854 438.431V436.894C619.854 436.624 619.636 436.406 619.366 436.406H616.154C615.884 436.406 615.666 436.624 615.666 436.894V438.431C615.666 438.7 615.884 438.919 616.154 438.919Z" fill="#082F49"/>
<path d="M607.777 438.919H610.989C611.259 438.919 611.477 438.7 611.477 438.431V436.894C611.477 436.624 611.259 436.406 610.989 436.406H607.777C607.507 436.406 607.289 436.624 607.289 436.894V438.431C607.289 438.7 607.507 438.919 607.777 438.919Z" fill="#082F49"/>
<path d="M599.4 438.919H602.612C602.882 438.919 603.1 438.7 603.1 438.431V436.894C603.1 436.624 602.882 436.406 602.612 436.406H599.4C599.13 436.406 598.912 436.624 598.912 436.894V438.431C598.912 438.7 599.13 438.919 599.4 438.919Z" fill="#082F49"/>
<path d="M591.023 438.919H594.235C594.505 438.919 594.723 438.7 594.723 438.431V436.894C594.723 436.624 594.505 436.406 594.235 436.406H591.023C590.753 436.406 590.535 436.624 590.535 436.894V438.431C590.535 438.7 590.753 438.919 591.023 438.919Z" fill="#082F49"/>
<path d="M582.646 438.919H585.858C586.128 438.919 586.346 438.7 586.346 438.431V436.894C586.346 436.624 586.128 436.406 585.858 436.406H582.646C582.376 436.406 582.158 436.624 582.158 436.894V438.431C582.158 438.7 582.376 438.919 582.646 438.919Z" fill="#082F49"/>
<path d="M574.269 438.919H577.481C577.751 438.919 577.969 438.7 577.969 438.431V436.894C577.969 436.624 577.751 436.406 577.481 436.406H574.269C573.999 436.406 573.781 436.624 573.781 436.894V438.431C573.781 438.7 573.999 438.919 574.269 438.919Z" fill="#082F49"/>
<path d="M565.892 438.919H569.104C569.374 438.919 569.592 438.7 569.592 438.431V436.894C569.592 436.624 569.374 436.406 569.104 436.406H565.892C565.622 436.406 565.404 436.624 565.404 436.894V438.431C565.404 438.7 565.622 438.919 565.892 438.919Z" fill="#082F49"/>
<path d="M557.515 438.919H560.727C560.997 438.919 561.215 438.7 561.215 438.431V436.894C561.215 436.624 560.997 436.406 560.727 436.406H557.515C557.245 436.406 557.027 436.624 557.027 436.894V438.431C557.027 438.7 557.245 438.919 557.515 438.919Z" fill="#082F49"/>
<path d="M549.138 438.919H552.35C552.62 438.919 552.838 438.7 552.838 438.431V436.894C552.838 436.624 552.62 436.406 552.35 436.406H549.138C548.869 436.406 548.65 436.624 548.65 436.894V438.431C548.65 438.7 548.869 438.919 549.138 438.919Z" fill="#082F49"/>
<path d="M540.761 438.919H543.973C544.243 438.919 544.461 438.7 544.461 438.431V436.894C544.461 436.624 544.243 436.406 543.973 436.406H540.761C540.491 436.406 540.273 436.624 540.273 436.894V438.431C540.273 438.7 540.491 438.919 540.761 438.919Z" fill="#082F49"/>
<path d="M532.384 438.919H535.596C535.866 438.919 536.084 438.7 536.084 438.431V436.894C536.084 436.624 535.866 436.406 535.596 436.406H532.384C532.115 436.406 531.896 436.624 531.896 436.894V438.431C531.896 438.7 532.115 438.919 532.384 438.919Z" fill="#082F49"/>
<path d="M524.007 438.919H527.219C527.489 438.919 527.707 438.7 527.707 438.431V436.894C527.707 436.624 527.489 436.406 527.219 436.406H524.007C523.738 436.406 523.519 436.624 523.519 436.894V438.431C523.519 438.7 523.738 438.919 524.007 438.919Z" fill="#082F49"/>
<path d="M515.63 438.919H518.842C519.112 438.919 519.331 438.7 519.331 438.431V436.894C519.331 436.624 519.112 436.406 518.842 436.406H515.63C515.361 436.406 515.142 436.624 515.142 436.894V438.431C515.142 438.7 515.361 438.919 515.63 438.919Z" fill="#082F49"/>
<path d="M507.253 438.919H510.465C510.735 438.919 510.953 438.7 510.953 438.431V436.894C510.953 436.624 510.735 436.406 510.465 436.406H507.253C506.984 436.406 506.765 436.624 506.765 436.894V438.431C506.765 438.7 506.984 438.919 507.253 438.919Z" fill="#082F49"/>
<path d="M498.876 438.919H502.088C502.358 438.919 502.577 438.7 502.577 438.431V436.894C502.577 436.624 502.358 436.406 502.088 436.406H498.876C498.607 436.406 498.388 436.624 498.388 436.894V438.431C498.388 438.7 498.607 438.919 498.876 438.919Z" fill="#082F49"/>
<path d="M555.002 443.945H587.534C587.803 443.945 588.022 443.726 588.022 443.457V441.92C588.022 441.651 587.803 441.432 587.534 441.432H555.002C554.732 441.432 554.514 441.651 554.514 441.92V443.457C554.514 443.726 554.732 443.945 555.002 443.945Z" fill="#082F49"/>
<path d="M520.536 359.237H517.692C516.83 359.237 516.131 359.936 516.131 360.798C516.131 361.66 516.83 362.359 517.692 362.359H520.536C521.398 362.359 522.097 361.66 522.097 360.798C522.097 359.936 521.398 359.237 520.536 359.237Z" fill="#F0F9FF"/>
<path d="M553.059 359.237H550.215C549.353 359.237 548.654 359.936 548.654 360.798C548.654 361.66 549.353 362.359 550.215 362.359H553.059C553.921 362.359 554.62 361.66 554.62 360.798C554.62 359.936 553.921 359.237 553.059 359.237Z" fill="#F0F9FF"/>
<path d="M562.274 359.237H559.43C558.568 359.237 557.869 359.936 557.869 360.798C557.869 361.66 558.568 362.359 559.43 362.359H562.274C563.136 362.359 563.835 361.66 563.835 360.798C563.835 359.936 563.136 359.237 562.274 359.237Z" fill="#F0F9FF"/>
<path d="M544.212 358.977H526.539C525.676 358.977 524.977 359.676 524.977 360.538C524.977 361.4 525.676 362.099 526.539 362.099H544.212C545.075 362.099 545.774 361.4 545.774 360.538C545.774 359.676 545.075 358.977 544.212 358.977Z" fill="#F0F9FF"/>
<path d="M587.576 358.977H569.903C569.04 358.977 568.341 359.676 568.341 360.538C568.341 361.4 569.04 362.099 569.903 362.099H587.576C588.439 362.099 589.138 361.4 589.138 360.538C589.138 359.676 588.439 358.977 587.576 358.977Z" fill="#F0F9FF"/>
<path d="M529.209 366.284H526.365C525.503 366.284 524.804 366.983 524.804 367.845C524.804 368.707 525.503 369.406 526.365 369.406H529.209C530.071 369.406 530.77 368.707 530.77 367.845C530.77 366.983 530.071 366.284 529.209 366.284Z" fill="#F0F9FF"/>
<path d="M561.732 366.284H558.888C558.026 366.284 557.327 366.983 557.327 367.845C557.327 368.707 558.026 369.406 558.888 369.406H561.732C562.594 369.406 563.293 368.707 563.293 367.845C563.293 366.983 562.594 366.284 561.732 366.284Z" fill="#F0F9FF"/>
<path d="M570.946 366.284H568.103C567.241 366.284 566.542 366.983 566.542 367.845C566.542 368.707 567.241 369.406 568.103 369.406H570.946C571.809 369.406 572.508 368.707 572.508 367.845C572.508 366.983 571.809 366.284 570.946 366.284Z" fill="#F0F9FF"/>
<path d="M552.885 366.023H535.211C534.349 366.023 533.65 366.722 533.65 367.585C533.65 368.447 534.349 369.146 535.211 369.146H552.885C553.747 369.146 554.446 368.447 554.446 367.585C554.446 366.722 553.747 366.023 552.885 366.023Z" fill="#F0F9FF"/>
<path d="M596.249 366.023H578.575C577.713 366.023 577.014 366.722 577.014 367.585C577.014 368.447 577.713 369.146 578.575 369.146H596.249C597.111 369.146 597.81 368.447 597.81 367.585C597.81 366.722 597.111 366.023 596.249 366.023Z" fill="#F0F9FF"/>
<path d="M537.881 373.33H535.038C534.176 373.33 533.477 374.029 533.477 374.891C533.477 375.754 534.176 376.453 535.038 376.453H537.881C538.744 376.453 539.443 375.754 539.443 374.891C539.443 374.029 538.744 373.33 537.881 373.33Z" fill="#F0F9FF"/>
<path d="M570.404 373.33H567.561C566.699 373.33 566 374.029 566 374.891C566 375.754 566.699 376.453 567.561 376.453H570.404C571.267 376.453 571.966 375.754 571.966 374.891C571.966 374.029 571.267 373.33 570.404 373.33Z" fill="#F0F9FF"/>
<path d="M579.619 373.33H576.776C575.913 373.33 575.215 374.029 575.215 374.891C575.215 375.754 575.913 376.453 576.776 376.453H579.619C580.481 376.453 581.18 375.754 581.18 374.891C581.18 374.029 580.481 373.33 579.619 373.33Z" fill="#F0F9FF"/>
<path d="M561.558 373.07H543.884C543.022 373.07 542.323 373.769 542.323 374.631C542.323 375.493 543.022 376.192 543.884 376.192H561.558C562.42 376.192 563.119 375.493 563.119 374.631C563.119 373.769 562.42 373.07 561.558 373.07Z" fill="#F0F9FF"/>
<path d="M604.922 373.07H587.248C586.386 373.07 585.687 373.769 585.687 374.631C585.687 375.493 586.386 376.192 587.248 376.192H604.922C605.784 376.192 606.483 375.493 606.483 374.631C606.483 373.769 605.784 373.07 604.922 373.07Z" fill="#F0F9FF"/>
<path d="M546.554 380.377H543.711C542.848 380.377 542.149 381.076 542.149 381.938C542.149 382.8 542.848 383.499 543.711 383.499H546.554C547.416 383.499 548.115 382.8 548.115 381.938C548.115 381.076 547.416 380.377 546.554 380.377Z" fill="#F0F9FF"/>
<path d="M579.077 380.377H576.234C575.371 380.377 574.672 381.076 574.672 381.938C574.672 382.8 575.371 383.499 576.234 383.499H579.077C579.939 383.499 580.638 382.8 580.638 381.938C580.638 381.076 579.939 380.377 579.077 380.377Z" fill="#F0F9FF"/>
<path d="M588.292 380.377H585.448C584.586 380.377 583.887 381.076 583.887 381.938C583.887 382.8 584.586 383.499 585.448 383.499H588.292C589.154 383.499 589.853 382.8 589.853 381.938C589.853 381.076 589.154 380.377 588.292 380.377Z" fill="#F0F9FF"/>
<path d="M570.231 380.117H552.557C551.695 380.117 550.996 380.816 550.996 381.678C550.996 382.54 551.695 383.239 552.557 383.239H570.231C571.093 383.239 571.792 382.54 571.792 381.678C571.792 380.816 571.093 380.117 570.231 380.117Z" fill="#F0F9FF"/>
<path d="M553.059 408.398H550.215C549.353 408.398 548.654 409.096 548.654 409.959C548.654 410.821 549.353 411.52 550.215 411.52H553.059C553.921 411.52 554.62 410.821 554.62 409.959C554.62 409.096 553.921 408.398 553.059 408.398Z" fill="#F0F9FF"/>
<path d="M562.274 408.398H559.43C558.568 408.398 557.869 409.096 557.869 409.959C557.869 410.821 558.568 411.52 559.43 411.52H562.274C563.136 411.52 563.835 410.821 563.835 409.959C563.835 409.096 563.136 408.398 562.274 408.398Z" fill="#F0F9FF"/>
<path d="M587.576 408.658H569.903C569.04 408.658 568.341 409.357 568.341 410.219C568.341 411.081 569.04 411.78 569.903 411.78H587.576C588.439 411.78 589.138 411.081 589.138 410.219C589.138 409.357 588.439 408.658 587.576 408.658Z" fill="#F0F9FF"/>
<path d="M520.536 408.398H517.692C516.83 408.398 516.131 409.096 516.131 409.959C516.131 410.821 516.83 411.52 517.692 411.52H520.536C521.398 411.52 522.097 410.821 522.097 409.959C522.097 409.096 521.398 408.398 520.536 408.398Z" fill="#F0F9FF"/>
<path d="M544.212 408.658H526.539C525.676 408.658 524.977 409.357 524.977 410.219C524.977 411.081 525.676 411.78 526.539 411.78H544.212C545.075 411.78 545.774 411.081 545.774 410.219C545.774 409.357 545.075 408.658 544.212 408.658Z" fill="#F0F9FF"/>
<path d="M529.209 401.351H526.365C525.503 401.351 524.804 402.05 524.804 402.912C524.804 403.774 525.503 404.473 526.365 404.473H529.209C530.071 404.473 530.77 403.774 530.77 402.912C530.77 402.05 530.071 401.351 529.209 401.351Z" fill="#F0F9FF"/>
<path d="M561.732 401.351H558.888C558.026 401.351 557.327 402.05 557.327 402.912C557.327 403.774 558.026 404.473 558.888 404.473H561.732C562.594 404.473 563.293 403.774 563.293 402.912C563.293 402.05 562.594 401.351 561.732 401.351Z" fill="#F0F9FF"/>
<path d="M570.946 401.351H568.103C567.241 401.351 566.542 402.05 566.542 402.912C566.542 403.774 567.241 404.473 568.103 404.473H570.946C571.809 404.473 572.508 403.774 572.508 402.912C572.508 402.05 571.809 401.351 570.946 401.351Z" fill="#F0F9FF"/>
<path d="M552.885 401.611H535.211C534.349 401.611 533.65 402.31 533.65 403.172C533.65 404.034 534.349 404.733 535.211 404.733H552.885C553.747 404.733 554.446 404.034 554.446 403.172C554.446 402.31 553.747 401.611 552.885 401.611Z" fill="#F0F9FF"/>
<path d="M537.881 394.304H535.038C534.176 394.304 533.477 395.003 533.477 395.865C533.477 396.727 534.176 397.426 535.038 397.426H537.881C538.744 397.426 539.443 396.727 539.443 395.865C539.443 395.003 538.744 394.304 537.881 394.304Z" fill="#F0F9FF"/>
<path d="M570.404 394.304H567.561C566.699 394.304 566 395.003 566 395.865C566 396.727 566.699 397.426 567.561 397.426H570.404C571.267 397.426 571.966 396.727 571.966 395.865C571.966 395.003 571.267 394.304 570.404 394.304Z" fill="#F0F9FF"/>
<path d="M579.619 394.304H576.776C575.913 394.304 575.215 395.003 575.215 395.865C575.215 396.727 575.913 397.426 576.776 397.426H579.619C580.481 397.426 581.18 396.727 581.18 395.865C581.18 395.003 580.481 394.304 579.619 394.304Z" fill="#F0F9FF"/>
<path d="M561.558 394.564H543.884C543.022 394.564 542.323 395.263 542.323 396.126C542.323 396.988 543.022 397.687 543.884 397.687H561.558C562.42 397.687 563.119 396.988 563.119 396.126C563.119 395.263 562.42 394.564 561.558 394.564Z" fill="#F0F9FF"/>
<path d="M546.554 387.258H543.711C542.848 387.258 542.149 387.956 542.149 388.819C542.149 389.681 542.848 390.38 543.711 390.38H546.554C547.416 390.38 548.115 389.681 548.115 388.819C548.115 387.956 547.416 387.258 546.554 387.258Z" fill="#F0F9FF"/>
<path d="M579.077 387.258H576.234C575.371 387.258 574.672 387.956 574.672 388.819C574.672 389.681 575.371 390.38 576.234 390.38H579.077C579.939 390.38 580.638 389.681 580.638 388.819C580.638 387.956 579.939 387.258 579.077 387.258Z" fill="#F0F9FF"/>
<path d="M588.292 387.258H585.448C584.586 387.258 583.887 387.956 583.887 388.819C583.887 389.681 584.586 390.38 585.448 390.38H588.292C589.154 390.38 589.853 389.681 589.853 388.819C589.853 387.956 589.154 387.258 588.292 387.258Z" fill="#F0F9FF"/>
<path d="M570.231 387.518H552.557C551.695 387.518 550.996 388.217 550.996 389.079C550.996 389.941 551.695 390.64 552.557 390.64H570.231C571.093 390.64 571.792 389.941 571.792 389.079C571.792 388.217 571.093 387.518 570.231 387.518Z" fill="#F0F9FF"/>
<path d="M505.417 490.982L492.068 469.88L533.97 436.477L551.265 417.316C553.512 414.827 556.373 412.971 559.562 411.933C562.751 410.896 566.157 410.714 569.438 411.405C572.72 412.096 575.762 413.636 578.262 415.872C580.762 418.107 582.631 420.96 583.683 424.144C585.242 428.863 584.907 434.002 582.748 438.479C580.589 442.955 576.776 446.417 572.113 448.135L544.764 458.21L505.417 490.982Z" fill="#FFB6B6"/>
<path d="M192.19 337.981V440.541H264.04V337.981C264.041 337.243 263.806 336.525 263.368 335.931C262.931 335.337 262.315 334.899 261.61 334.681C261.278 334.571 260.93 334.517 260.58 334.521H195.66C195.205 334.52 194.754 334.609 194.333 334.782C193.913 334.956 193.53 335.21 193.208 335.532C192.886 335.853 192.63 336.235 192.455 336.655C192.28 337.075 192.19 337.526 192.19 337.981ZM220.23 373.221C220.249 371.199 221.065 369.266 222.501 367.843C223.938 366.42 225.878 365.622 227.9 365.622C229.922 365.622 231.862 366.42 233.298 367.843C234.735 369.266 235.551 371.199 235.57 373.221V385.121C235.56 387.148 234.747 389.089 233.31 390.519C231.872 391.949 229.927 392.752 227.9 392.752C225.872 392.752 223.928 391.949 222.49 390.519C221.053 389.089 220.24 387.148 220.23 385.121V373.221Z" fill="#155E75"/>
<path d="M191.97 437.261V447.151C191.972 447.663 192.175 448.154 192.536 448.517C192.898 448.881 193.388 449.087 193.9 449.091H262.33C262.843 449.088 263.334 448.883 263.695 448.519C264.057 448.156 264.26 447.664 264.26 447.151V437.261H191.97Z" fill="#082F49"/>
<path d="M79.16 183.461V370.721C79.1619 373.107 80.1107 375.395 81.7981 377.083C83.4855 378.77 85.7736 379.719 88.16 379.721H365.66C368.046 379.719 370.334 378.77 372.022 377.083C373.709 375.395 374.658 373.107 374.66 370.721V183.461C374.654 181.077 373.704 178.792 372.017 177.107C370.33 175.422 368.044 174.474 365.66 174.471H88.16C85.7757 174.474 83.4898 175.422 81.8029 177.107C80.116 178.792 79.1657 181.077 79.16 183.461Z" fill="#082F49"/>
<path d="M85.67 185.791V368.411C85.6722 369.686 86.1796 370.908 87.0812 371.81C87.9828 372.711 89.205 373.219 90.48 373.221H363.35C364.625 373.219 365.847 372.711 366.749 371.81C367.65 370.908 368.158 369.686 368.16 368.411V185.791C368.16 184.514 367.653 183.29 366.752 182.386C365.85 181.483 364.627 180.974 363.35 180.971H90.48C89.2034 180.974 87.9801 181.483 87.0783 182.386C86.1766 183.29 85.6701 184.514 85.67 185.791Z" fill="#E0F2FE"/>
<path d="M136.31 448.421C136.588 448.769 136.941 449.05 137.343 449.242C137.744 449.434 138.185 449.533 138.63 449.531H300.97C301.414 449.53 301.852 449.431 302.253 449.24C302.654 449.048 303.007 448.77 303.286 448.425C303.566 448.081 303.765 447.678 303.87 447.246C303.974 446.815 303.981 446.365 303.89 445.931L301.37 433.961C301.266 433.473 301.041 433.018 300.716 432.639C300.391 432.26 299.976 431.969 299.51 431.791C299.172 431.658 298.813 431.59 298.45 431.591H141.14C140.777 431.59 140.418 431.658 140.08 431.791C139.614 431.969 139.199 432.26 138.874 432.639C138.549 433.018 138.324 433.473 138.22 433.961L135.7 445.931C135.61 446.365 135.619 446.814 135.724 447.245C135.83 447.675 136.03 448.077 136.31 448.421Z" fill="#155E75"/>
<path d="M354.495 206.128H99.1711C98.9058 206.122 98.6532 206.012 98.4676 205.822C98.282 205.633 98.1781 205.378 98.1781 205.112C98.1781 204.847 98.282 204.592 98.4676 204.402C98.6532 204.212 98.9058 204.103 99.1711 204.097H354.495C354.76 204.103 355.012 204.212 355.198 204.402C355.384 204.592 355.488 204.847 355.488 205.112C355.488 205.378 355.384 205.633 355.198 205.822C355.012 206.012 354.76 206.122 354.495 206.128Z" fill="#082F49"/>
<path d="M116.551 198.913C119.838 198.913 122.502 196.189 122.502 192.83C122.502 189.47 119.838 186.747 116.551 186.747C113.265 186.747 110.601 189.47 110.601 192.83C110.601 196.189 113.265 198.913 116.551 198.913Z" fill="#082F49"/>
<path d="M137.107 198.913C140.394 198.913 143.058 196.189 143.058 192.83C143.058 189.47 140.394 186.747 137.107 186.747C133.821 186.747 131.157 189.47 131.157 192.83C131.157 196.189 133.821 198.913 137.107 198.913Z" fill="#082F49"/>
<path d="M157.663 198.913C160.95 198.913 163.614 196.189 163.614 192.83C163.614 189.47 160.95 186.747 157.663 186.747C154.377 186.747 151.713 189.47 151.713 192.83C151.713 196.189 154.377 198.913 157.663 198.913Z" fill="#082F49"/>
<path d="M342.116 188.251H327.516C327.228 188.258 326.953 188.377 326.751 188.583C326.55 188.79 326.437 189.067 326.437 189.356C326.437 189.645 326.55 189.922 326.751 190.128C326.953 190.335 327.228 190.454 327.516 190.461H342.116C342.407 190.457 342.684 190.339 342.888 190.132C343.092 189.925 343.206 189.646 343.206 189.356C343.206 189.065 343.092 188.787 342.888 188.58C342.684 188.373 342.407 188.255 342.116 188.251Z" fill="#082F49"/>
<path d="M342.116 192.401H327.516C327.228 192.407 326.953 192.527 326.751 192.733C326.549 192.94 326.435 193.217 326.435 193.506C326.435 193.795 326.549 194.072 326.751 194.279C326.953 194.485 327.228 194.604 327.516 194.611H342.116C342.407 194.607 342.685 194.489 342.889 194.283C343.094 194.076 343.208 193.797 343.208 193.506C343.208 193.215 343.094 192.936 342.889 192.729C342.685 192.522 342.407 192.404 342.116 192.401Z" fill="#082F49"/>
<path d="M342.116 196.551H327.516C327.228 196.558 326.953 196.677 326.751 196.883C326.55 197.09 326.437 197.367 326.437 197.656C326.437 197.945 326.55 198.222 326.751 198.428C326.953 198.635 327.228 198.754 327.516 198.761H342.116C342.407 198.757 342.684 198.638 342.888 198.432C343.092 198.225 343.206 197.946 343.206 197.656C343.206 197.365 343.092 197.087 342.888 196.88C342.684 196.673 342.407 196.555 342.116 196.551Z" fill="#082F49"/>
<path d="M694.096 441.601C694.536 442.884 695.372 443.994 696.483 444.772C697.594 445.55 698.923 445.957 700.279 445.932L726.771 445.25C728.137 445.224 729.457 444.756 730.535 443.917C731.614 443.077 732.391 441.911 732.752 440.594L736.5 400.506C737.83 401.109 739.278 401.406 740.738 401.377C742.007 401.345 743.256 401.064 744.416 400.549C745.576 400.034 746.622 399.296 747.497 398.377C748.371 397.457 749.056 396.375 749.512 395.191C749.968 394.007 750.186 392.745 750.154 391.476C750.122 390.208 749.841 388.958 749.326 387.799C748.811 386.639 748.073 385.592 747.154 384.718C746.235 383.844 745.152 383.159 743.968 382.703C742.784 382.247 741.522 382.029 740.253 382.06C739.67 382.059 739.088 382.119 738.517 382.241C737.897 381.57 737.142 381.036 736.303 380.673C735.463 380.311 734.557 380.129 733.643 380.138L692.893 381.19C692.555 381.203 692.218 381.245 691.888 381.315C690.994 381.482 690.146 381.838 689.402 382.359C688.657 382.881 688.033 383.556 687.571 384.339C687.11 385.122 686.821 385.995 686.725 386.899C686.629 387.803 686.728 388.717 687.014 389.58L694.096 441.601ZM737.269 397.784L739.937 388.232C740.24 387.128 740.247 385.964 739.957 384.857C740.087 384.857 740.201 384.795 740.33 384.795C742.159 384.757 743.929 385.446 745.251 386.711C746.573 387.976 747.339 389.713 747.382 391.542C747.425 393.371 746.74 395.143 745.479 396.468C744.218 397.793 742.483 398.564 740.654 398.612C739.471 398.649 738.301 398.363 737.269 397.784Z" fill="#155E75"/>
<path d="M691.888 381.315C692.756 386.279 702.517 389.769 714.253 389.162C725.046 388.665 733.871 384.875 735.488 380.384C734.889 380.207 734.267 380.124 733.643 380.138L692.893 381.19C692.555 381.203 692.218 381.245 691.888 381.315Z" fill="#082F49"/>
<path d="M716.404 419.573C716.458 419.559 716.509 419.537 716.555 419.507L722.308 415.741C722.378 415.696 722.435 415.634 722.475 415.561C722.514 415.488 722.535 415.406 722.535 415.323C722.535 415.24 722.514 415.158 722.475 415.085C722.435 415.012 722.378 414.95 722.309 414.905L716.329 410.988C716.274 410.952 716.213 410.927 716.148 410.914C716.083 410.902 716.017 410.902 715.952 410.915C715.888 410.929 715.827 410.954 715.772 410.991C715.718 411.028 715.671 411.076 715.635 411.131C715.599 411.186 715.574 411.247 715.562 411.312C715.55 411.377 715.551 411.443 715.564 411.508C715.578 411.572 715.604 411.633 715.641 411.687C715.678 411.742 715.726 411.788 715.781 411.824L721.122 415.322L716.008 418.67C715.909 418.735 715.836 418.833 715.802 418.946C715.769 419.059 715.776 419.181 715.824 419.289C715.871 419.398 715.956 419.486 716.062 419.538C716.168 419.589 716.29 419.602 716.404 419.573Z" fill="#E0F2FE"/>
<path d="M707.318 419.992C707.414 419.968 707.501 419.915 707.568 419.841C707.634 419.766 707.677 419.674 707.69 419.575C707.704 419.477 707.688 419.376 707.644 419.287C707.6 419.197 707.53 419.123 707.444 419.074L702.141 416.033L707.266 412.226C707.319 412.187 707.363 412.138 707.397 412.082C707.431 412.025 707.453 411.963 707.463 411.898C707.472 411.833 707.469 411.767 707.453 411.703C707.437 411.64 707.408 411.58 707.369 411.527C707.33 411.474 707.281 411.43 707.225 411.396C707.168 411.363 707.106 411.34 707.041 411.331C706.976 411.321 706.91 411.325 706.846 411.341C706.783 411.357 706.723 411.385 706.67 411.424L700.932 415.687C700.865 415.736 700.812 415.801 700.776 415.877C700.741 415.952 700.725 416.035 700.73 416.117C700.735 416.2 700.761 416.281 700.804 416.351C700.848 416.422 700.909 416.48 700.981 416.521L706.946 419.941C707.059 420.006 707.192 420.024 707.318 419.992Z" fill="#E0F2FE"/>
<path d="M715.832 422.873C715.881 422.861 715.927 422.841 715.969 422.815C716.025 422.781 716.074 422.736 716.113 422.683C716.152 422.63 716.18 422.57 716.195 422.506C716.211 422.442 716.214 422.376 716.204 422.311C716.194 422.246 716.171 422.184 716.137 422.128L707.981 408.72C707.912 408.607 707.801 408.526 707.672 408.494C707.543 408.463 707.407 408.485 707.294 408.554C707.181 408.622 707.1 408.733 707.068 408.862C707.037 408.991 707.058 409.127 707.127 409.24L715.282 422.649C715.338 422.74 715.421 422.811 715.52 422.851C715.619 422.892 715.729 422.899 715.832 422.873Z" fill="#E0F2FE"/>
<path d="M257.34 261.327H213.149C211.346 261.327 209.885 262.789 209.885 264.591V268.909C209.885 270.711 211.346 272.173 213.149 272.173H257.34C259.142 272.173 260.604 270.711 260.604 268.909V264.591C260.604 262.789 259.142 261.327 257.34 261.327Z" fill="#06B6D4"/>
<path d="M283.098 283.019H187.39C185.587 283.019 184.126 284.48 184.126 286.283V290.6C184.126 292.403 185.587 293.864 187.39 293.864H283.098C284.901 293.864 286.362 292.403 286.362 290.6V286.283C286.362 284.48 284.901 283.019 283.098 283.019Z" fill="#06B6D4"/>
<path d="M283.098 304.71H187.39C185.587 304.71 184.126 306.171 184.126 307.974V312.291C184.126 314.094 185.587 315.556 187.39 315.556H283.098C284.901 315.556 286.362 314.094 286.362 312.291V307.974C286.362 306.171 284.901 304.71 283.098 304.71Z" fill="#06B6D4"/>
<path d="M291.211 377.346L291.428 378.03L291.439 378.053L297.965 397.891L305.471 420.752L319.594 463.713L319.73 470.387V470.41L320.78 524.094L317.871 531.372L321.145 543.305C321.145 543.305 319.639 525.268 311.562 535.626C306.988 541.512 301.638 547.535 297.246 553.182C303.646 555.772 310.148 558.114 316.753 560.209C318.179 560.666 319.616 561.099 321.054 561.533C321.362 561.624 321.67 561.715 321.978 561.806C343.872 568.281 366.508 571.92 389.329 572.632C390.515 572.667 391.679 572.689 392.808 572.712C393.207 572.724 393.595 572.735 393.983 572.735C395.261 572.746 396.527 572.758 397.804 572.758C400.383 572.758 402.949 572.72 405.505 572.644C424.418 572.111 443.221 569.568 461.596 565.058C461.471 557.472 461.128 548.608 460.638 539.139C460.41 534.496 455.288 529.466 454.98 524.606C454.763 520.956 459.36 517.522 459.121 513.814C457.569 490.988 455.63 499.75 454.193 483.586C454.044 482 453.907 480.483 453.782 479.034C452.858 468.653 452.219 462.162 452.219 462.162L458.356 423.479L467.996 362.744L467.254 361.523L466.422 361.113L415.578 335.947L412.817 328.875C412.013 326.837 410.617 325.087 408.81 323.849C407.002 322.611 404.866 321.941 402.676 321.927L369.183 321.791C367.444 321.783 365.729 322.189 364.18 322.977C362.631 323.765 361.291 324.911 360.273 326.319L351.204 338.879L291.211 377.346Z" fill="#082F49"/>
<path d="M327.316 454.154L319.73 470.387L314.551 481.475L305.642 528.121L301.182 532.855L297.36 516.096L257.362 524.977C256.05 517.687 257.011 525.223 256.201 517.227C256.429 516.999 256.669 516.77 256.908 516.542C257.547 515.949 258.083 515.39 258.072 514.854C257.616 487.27 258.985 440.328 270.415 411.888C272.205 407.245 274.566 402.842 277.442 398.781C277.67 398.473 277.887 398.165 278.104 397.857C283.374 390.476 286.705 383.209 291.428 378.042V378.03C291.457 378.007 291.484 377.98 291.508 377.95C291.525 377.942 291.54 377.93 291.553 377.916L323.997 360.713L325.389 399.819L326.381 427.927L327.316 454.154Z" fill="#082F49"/>
<path d="M444.301 458.764L453.777 479.039L457.085 486.1L465.992 532.742L470.437 537.465L474.268 520.709L476.068 520.34L508.526 513.618L517.987 543.664C520.119 540.111 520.959 535.931 520.365 531.83C519.771 527.73 517.778 523.96 514.725 521.158C514.079 520.574 513.541 520.005 513.556 519.466C514.095 487.023 512.11 427.783 494.189 403.4C488.497 395.663 485.082 387.956 480.113 382.572C480.098 382.556 480.098 382.541 480.083 382.541L467.991 362.743L467.253 361.527L466.422 361.112L444.301 458.764Z" fill="#082F49"/>
<path d="M386.897 312.259C411.505 312.259 431.455 292.309 431.455 267.701C431.455 243.092 411.505 223.142 386.897 223.142C362.288 223.142 342.338 243.092 342.338 267.701C342.338 292.309 362.288 312.259 386.897 312.259Z" fill="#FFB6B6"/>
<path d="M447.122 236.577C446.777 236.208 446.361 235.912 445.898 235.708C445.436 235.503 444.938 235.394 444.432 235.387L445.102 233.527C445.321 232.941 445.38 232.307 445.273 231.691C445.167 231.075 444.898 230.498 444.495 230.02C444.092 229.542 443.569 229.179 442.98 228.97C442.391 228.76 441.757 228.711 441.142 228.827L438.702 229.297L438.932 227.667C439.02 227.06 438.949 226.44 438.725 225.869C438.501 225.298 438.133 224.795 437.655 224.409C437.178 224.024 436.609 223.769 436.003 223.671C435.398 223.572 434.777 223.633 434.202 223.847C433.679 224.053 433.117 224.139 432.556 224.099C431.996 224.059 431.451 223.894 430.962 223.617C430.472 223.348 430.046 222.975 429.714 222.524C429.382 222.073 429.153 221.555 429.042 221.007L428.192 216.907L428.102 216.687C423.962 209.787 416.002 204.767 406.262 202.927C397.592 201.277 388.702 202.117 380.132 202.907C376.732 203.227 372.892 203.587 369.692 205.547C366.972 207.227 364.672 210.587 365.142 213.977C356.692 211.387 347.632 216.557 343.142 223.077C337.822 230.837 336.952 240.557 336.812 248.157C336.432 266.137 340.142 280.847 347.812 291.887C348.372 292.687 348.512 294.357 349.622 294.917L349.392 294.547C350.632 295.167 351.892 296.167 351.422 297.237C350.072 300.317 359.042 307.127 365.362 309.377C376.892 313.487 392.222 313.137 403.002 311.657L403.382 309.107C407.272 308.577 410.012 307.567 410.782 305.987C412.142 304.827 413.302 303.787 414.312 302.827L414.322 302.817C414.342 302.797 414.382 302.767 414.402 302.747C419.272 298.077 420.402 295.417 420.912 291.367C421.402 287.397 420.532 283.367 419.642 279.737C438.382 282.637 412.262 259.777 429.722 255.357C429.923 255.295 430.126 255.245 430.332 255.207C430.842 255.087 431.352 254.967 431.842 254.827C434.204 254.186 436.466 253.22 438.562 251.957C443.442 248.987 445.052 245.047 447.572 240.607C447.936 239.975 448.088 239.243 448.007 238.518C447.926 237.793 447.616 237.113 447.122 236.577Z" fill="#06B6D4"/>
<path d="M544.492 461.937C544.482 463.687 544.462 466.137 544.382 469.167C544.372 469.587 544.362 470.017 544.352 470.457C544.222 476.027 544.092 480.697 543.882 485.887C543.872 486.247 543.862 486.597 543.842 486.957C543.562 494.197 543.122 502.627 542.362 515.977C540.952 540.637 538.492 519.367 536.022 528.017C535.902 528.447 535.772 528.957 535.652 529.557C535.278 531.734 534.647 533.859 533.772 535.887C532.462 536.667 531.112 537.417 529.782 538.167C525.992 540.277 522.142 542.307 518.262 544.237C516.082 545.317 513.892 546.377 511.692 547.397C511.342 547.557 511.002 547.717 510.662 547.867C499.396 553.078 487.786 557.508 475.912 561.127C473.592 561.827 471.282 562.507 468.942 563.137C466.502 563.817 464.062 564.457 461.592 565.057C443.217 569.568 424.415 572.112 405.502 572.647C402.952 572.727 400.382 572.757 397.802 572.757C396.522 572.757 395.262 572.747 393.982 572.737C393.592 572.737 393.202 572.727 392.812 572.717C391.682 572.687 390.512 572.667 389.332 572.637C366.511 571.925 343.876 568.285 321.982 561.807L321.052 561.537C319.612 561.097 318.182 560.667 316.752 560.207C310.152 558.117 303.649 555.777 297.242 553.187C292.352 551.217 287.519 549.103 282.742 546.847C282.699 546.835 282.658 546.815 282.622 546.787C281.622 546.327 280.612 545.847 279.612 545.357C279.482 545.287 279.342 545.217 279.202 545.147C275.472 543.327 271.782 541.42 268.132 539.427C265.062 532.377 260.742 531.027 258.062 524.827C257.282 522.985 256.718 521.059 256.382 519.087C256.382 519.067 256.372 519.047 256.372 519.017C256.652 522.737 255.182 512.417 256.362 518.977C256.352 518.857 256.342 518.727 256.332 518.577C256.302 518.217 256.262 517.777 256.202 517.227C252.772 483.737 252.992 445.437 251.502 413.877C251.402 411.837 251.299 409.883 251.192 408.017C251.162 407.397 251.122 406.787 251.082 406.187C251.152 406.007 251.232 405.817 251.322 405.637C251.341 405.585 251.365 405.535 251.392 405.487C251.422 405.425 251.455 405.365 251.492 405.307C251.512 405.277 251.542 405.237 251.562 405.207C251.577 405.172 251.594 405.139 251.612 405.107C251.702 404.967 251.802 404.817 251.912 404.677C251.962 404.617 252.002 404.567 252.052 404.517C252.087 404.466 252.127 404.419 252.172 404.377C252.203 404.329 252.24 404.285 252.282 404.247C252.322 404.207 252.362 404.157 252.412 404.107C252.434 404.075 252.461 404.048 252.492 404.027C252.571 403.936 252.658 403.852 252.752 403.777C253.109 403.449 253.49 403.148 253.892 402.877C254.032 402.787 254.182 402.697 254.322 402.597C255.33 401.994 256.391 401.485 257.492 401.077C257.872 400.937 258.252 400.807 258.662 400.667C258.812 400.627 258.952 400.577 259.102 400.527C259.322 400.457 259.542 400.387 259.772 400.337C260.912 399.997 262.142 399.707 263.472 399.437C263.632 399.407 263.802 399.377 263.972 399.337C264.212 399.287 264.462 399.247 264.712 399.207C265.052 399.147 265.402 399.087 265.752 399.027C268.722 398.557 272.092 398.207 275.812 397.977C276.162 397.957 276.512 397.937 276.862 397.917C277.272 397.897 277.682 397.877 278.102 397.857C278.452 397.837 278.812 397.827 279.172 397.817C279.522 397.797 279.882 397.787 280.252 397.777C281.262 397.747 282.302 397.717 283.362 397.697C286.382 397.637 289.562 397.657 292.902 397.727C294.452 397.767 296.032 397.807 297.652 397.877C297.762 397.877 297.862 397.887 297.962 397.887C299.372 397.937 300.792 397.997 302.252 398.077C303.272 398.127 304.302 398.177 305.332 398.237C306.302 398.297 307.282 398.357 308.272 398.427C309.042 398.467 309.812 398.527 310.592 398.577C311.252 398.627 311.912 398.677 312.572 398.717L313.472 398.777C313.962 398.817 314.452 398.847 314.952 398.897C316.052 398.987 317.152 399.077 318.272 399.167C319.382 399.267 320.512 399.367 321.642 399.467C322.772 399.567 323.912 399.677 325.052 399.787C325.172 399.797 325.282 399.807 325.392 399.817C326.432 399.927 327.472 400.027 328.522 400.137C328.762 400.157 329.012 400.177 329.252 400.207C330.253 400.307 331.274 400.425 332.284 400.532C332.594 400.566 332.903 400.598 333.214 400.632C334.005 400.719 334.785 400.793 335.582 400.887C336.632 401.007 337.702 401.117 338.742 401.257C339.552 401.347 340.362 401.437 341.172 401.537C342.442 401.687 343.732 401.847 345.022 402.017C345.512 402.077 346.002 402.137 346.492 402.207C350.172 402.667 353.892 403.177 357.672 403.707C363.402 404.517 369.222 405.397 375.082 406.347C380.952 407.297 386.856 408.3 392.792 409.357C394.292 409.627 395.792 409.897 397.302 410.177C397.982 410.307 398.662 410.437 399.342 410.567C400.502 410.777 401.662 410.997 402.822 411.217C403.982 411.437 405.142 411.657 406.302 411.887C407.682 412.157 409.072 412.427 410.452 412.697C419.542 414.497 428.582 416.417 437.402 418.427C438.852 418.757 440.302 419.097 441.742 419.427C444.622 420.097 447.475 420.777 450.302 421.467C451.082 421.647 451.852 421.837 452.622 422.027C454.542 422.507 456.462 422.987 458.352 423.477L458.682 423.567C460.072 423.907 461.432 424.257 462.792 424.617C466.002 425.457 469.159 426.307 472.262 427.167C474.322 427.737 476.359 428.313 478.372 428.897C481.382 429.767 484.332 430.647 487.202 431.537C487.912 431.757 488.622 431.977 489.322 432.187C491.422 432.837 493.492 433.497 495.502 434.157C497.102 434.677 498.662 435.207 500.202 435.737C501.742 436.267 503.252 436.797 504.732 437.327C505.682 437.667 506.622 438.027 507.562 438.367C508.912 438.867 510.242 439.367 511.542 439.867C511.942 440.017 512.332 440.177 512.722 440.327C512.972 440.437 513.212 440.527 513.452 440.627C513.922 440.817 514.402 440.997 514.862 441.187C515.332 441.367 515.792 441.557 516.252 441.757C516.702 441.937 517.162 442.127 517.602 442.317C518.052 442.497 518.492 442.687 518.932 442.887C519.302 443.037 519.662 443.197 520.012 443.357C520.722 443.667 521.432 443.977 522.122 444.297C522.462 444.457 522.802 444.607 523.142 444.767L523.922 445.127C524.032 445.187 524.142 445.237 524.252 445.287C524.502 445.407 524.762 445.537 525.012 445.657C525.592 445.927 526.162 446.217 526.722 446.487C527.472 446.867 528.202 447.247 528.902 447.617C529.612 447.997 530.302 448.377 530.962 448.747C531.072 448.807 531.172 448.867 531.282 448.927C531.432 449.007 531.582 449.097 531.732 449.177C532.242 449.467 532.732 449.767 533.222 450.057C534.182 450.647 535.092 451.227 535.942 451.807C536.132 451.937 536.312 452.067 536.502 452.187C537.132 452.637 537.732 453.077 538.292 453.527C538.292 453.537 538.292 453.537 538.302 453.537C538.492 453.677 538.672 453.827 538.852 453.967C539.002 454.107 539.162 454.227 539.312 454.367C539.832 454.817 540.312 455.247 540.752 455.687C540.9 455.822 541.04 455.966 541.172 456.117C541.23 456.165 541.284 456.218 541.332 456.277C541.532 456.477 541.712 456.677 541.882 456.877C541.908 456.904 541.932 456.934 541.952 456.967C542.192 457.247 542.412 457.527 542.622 457.807C542.722 457.947 542.832 458.087 542.922 458.227C543.042 458.397 543.162 458.577 543.262 458.747C543.352 458.887 543.432 459.037 543.512 459.177C543.724 459.537 543.905 459.915 544.052 460.307C544.165 460.572 544.255 460.846 544.322 461.127C544.398 461.392 544.455 461.663 544.492 461.937Z" fill="#082F49"/>
<path opacity="0.2" d="M544.492 461.937C544.482 463.687 544.462 466.137 544.382 469.167C544.372 469.587 544.352 470.017 544.342 470.457C544.242 474.707 544.092 479.957 543.882 485.887C543.872 486.247 543.862 486.597 543.842 486.957C543.562 494.197 543.122 502.627 542.362 515.977C540.952 540.637 538.492 519.367 536.022 528.017C529.162 523.797 521.642 519.377 513.602 514.837C512.152 514.017 510.689 513.193 509.212 512.367C493.132 503.397 475.172 493.997 456.422 484.687C455.682 484.317 454.932 483.947 454.192 483.587C411.242 462.357 364.362 441.707 326.382 427.927C319.052 425.267 312.052 422.867 305.472 420.757C291.612 416.327 279.632 413.227 270.412 411.887C260.812 410.487 254.182 410.987 251.502 413.877C251.402 411.837 251.299 409.883 251.192 408.017C251.152 407.397 251.112 406.787 251.072 406.187C251.134 406.022 251.214 405.865 251.292 405.707C251.303 405.683 251.311 405.66 251.322 405.637C251.341 405.585 251.365 405.535 251.392 405.487C251.422 405.425 251.455 405.365 251.492 405.307C251.525 405.236 251.565 405.169 251.612 405.107C251.702 404.967 251.802 404.817 251.912 404.677C251.993 404.572 252.08 404.472 252.172 404.377C252.203 404.329 252.24 404.285 252.282 404.247C252.322 404.207 252.362 404.157 252.412 404.107C252.434 404.075 252.461 404.048 252.492 404.027C252.571 403.936 252.658 403.852 252.752 403.777C253.109 403.448 253.49 403.148 253.892 402.877C254.032 402.787 254.182 402.697 254.322 402.597C255.33 401.994 256.391 401.485 257.492 401.077C257.872 400.937 258.252 400.807 258.662 400.667C258.812 400.627 258.952 400.577 259.102 400.527C259.322 400.457 259.542 400.387 259.772 400.337C260.912 399.997 262.142 399.707 263.472 399.437C263.872 399.357 264.292 399.277 264.712 399.207C265.052 399.147 265.402 399.087 265.752 399.027C268.722 398.557 272.092 398.207 275.812 397.977C276.162 397.957 276.512 397.937 276.862 397.917C277.272 397.897 277.682 397.877 278.102 397.857C278.452 397.837 278.812 397.827 279.172 397.817C279.522 397.797 279.882 397.787 280.252 397.777C281.262 397.747 282.302 397.717 283.362 397.697C286.382 397.647 289.562 397.667 292.902 397.737C294.452 397.767 296.032 397.817 297.652 397.887C297.752 397.887 297.862 397.897 297.962 397.897C299.372 397.937 300.802 398.007 302.252 398.077C303.272 398.127 304.302 398.177 305.332 398.237C306.302 398.297 307.282 398.357 308.272 398.427C309.042 398.467 309.812 398.527 310.592 398.577C311.252 398.627 311.912 398.677 312.572 398.717C313.362 398.777 314.152 398.837 314.952 398.897C316.052 398.987 317.152 399.077 318.272 399.167C319.382 399.267 320.512 399.367 321.642 399.467C322.772 399.567 323.912 399.677 325.052 399.787C325.172 399.797 325.282 399.807 325.392 399.817C326.432 399.927 327.472 400.027 328.522 400.137C334.342 400.727 340.332 401.417 346.492 402.207C350.172 402.677 353.899 403.18 357.672 403.717C363.402 404.527 369.222 405.407 375.082 406.347C380.952 407.297 386.856 408.3 392.792 409.357C394.292 409.627 395.792 409.897 397.302 410.177C399.142 410.517 400.982 410.863 402.822 411.217C403.982 411.437 405.142 411.657 406.302 411.887C407.682 412.157 409.072 412.427 410.452 412.697C419.542 414.497 428.582 416.417 437.402 418.427C438.852 418.757 440.302 419.097 441.742 419.427C444.622 420.097 447.476 420.777 450.302 421.467C451.082 421.657 451.852 421.847 452.622 422.037C454.552 422.517 456.462 422.997 458.352 423.477V423.487C458.462 423.507 458.572 423.537 458.682 423.567C460.062 423.917 461.432 424.267 462.792 424.627C466.002 425.467 469.159 426.313 472.262 427.167C474.322 427.747 476.362 428.317 478.372 428.897C481.382 429.777 484.332 430.657 487.202 431.537C487.912 431.757 488.622 431.977 489.322 432.187C491.422 432.847 493.482 433.503 495.502 434.157C497.102 434.677 498.662 435.207 500.202 435.737C501.742 436.267 503.252 436.797 504.732 437.327C505.692 437.667 506.632 438.017 507.562 438.357C508.922 438.857 510.242 439.357 511.542 439.867C511.942 440.017 512.332 440.177 512.722 440.327C513.452 440.607 514.162 440.897 514.862 441.187C515.332 441.367 515.792 441.557 516.252 441.757C516.702 441.937 517.162 442.127 517.602 442.317C518.052 442.497 518.492 442.687 518.932 442.887C519.302 443.037 519.662 443.197 520.012 443.357C520.722 443.667 521.432 443.977 522.122 444.297C522.462 444.457 522.802 444.607 523.142 444.767L523.922 445.127C524.032 445.187 524.142 445.237 524.252 445.287C525.102 445.687 525.922 446.087 526.722 446.487C527.472 446.867 528.202 447.247 528.902 447.617C529.732 448.057 530.522 448.487 531.282 448.927C531.432 449.007 531.582 449.097 531.732 449.177C532.242 449.467 532.732 449.767 533.222 450.057C534.182 450.647 535.092 451.227 535.942 451.807C536.782 452.387 537.562 452.957 538.292 453.527C538.292 453.537 538.292 453.537 538.302 453.537C538.652 453.817 538.992 454.097 539.312 454.367C539.832 454.817 540.312 455.247 540.752 455.687C540.9 455.822 541.04 455.966 541.172 456.117C541.23 456.165 541.284 456.218 541.332 456.277C541.542 456.507 541.752 456.737 541.952 456.967C542.192 457.247 542.412 457.527 542.622 457.807C542.722 457.947 542.832 458.087 542.922 458.227C543.042 458.397 543.162 458.577 543.262 458.747C543.352 458.887 543.432 459.037 543.512 459.177C543.725 459.537 543.905 459.915 544.052 460.307C544.162 460.573 544.252 460.847 544.322 461.127C544.398 461.392 544.455 461.663 544.492 461.937Z" fill="black"/>
</g>
<defs>
<clipPath id="clip0_1_2">
<rect width="786.82" height="572.258" fill="white" transform="translate(0.5 0.5)"/>
</clipPath>
</defs>
</svg>
